<?xml version="1.0" encoding="UTF-8"?>
<!DOCTYPE svg PUBLIC "-//W3C//DTD SVG 1.1//EN" "http://www.w3.org/Graphics/SVG/1.1/DTD/svg11.dtd">
<!-- Creator: CorelDRAW -->
<svg xmlns="http://www.w3.org/2000/svg" xml:space="preserve" width="23.3755mm" height="23.3755mm" style="shape-rendering:geometricPrecision; text-rendering:geometricPrecision; image-rendering:optimizeQuality; fill-rule:evenodd; clip-rule:evenodd"
viewBox="0 0 43.7201 43.7201"
 xmlns:xlink="http://www.w3.org/1999/xlink">
 <defs>
  <style type="text/css">
   <![CDATA[
    .fil0 {fill:url(#id0)}
   ]]>
  </style>
  <linearGradient id="id0" gradientUnits="userSpaceOnUse" x1="21.8602" y1="2.14412e-015" x2="21.8602" y2="43.7199">
   <stop offset="0" style="stop-color:#EF9BA0"/>
   <stop offset="0.321569" style="stop-color:#D4A7BB"/>
   <stop offset="1" style="stop-color:#BAB3D6"/>
  </linearGradient>
 </defs>
 <g id="图层_x0020_1">
  <metadata id="CorelCorpID_0Corel-Layer"/>
  <path class="fil0" d="M21.8602 2.14412e-015c12.0708,0 21.86,9.78917 21.86,21.86 0,12.071 -9.78917,21.8602 -21.86,21.8602 -12.071,0 -21.8602,-9.78917 -21.8602,-21.8602 0,-12.0708 9.78917,-21.86 21.8602,-21.86zm11.6943 5.60746c-0.110163,0.24782 -0.234166,0.371636 -0.371823,0.371636 -0.054988,0 -0.123816,-0.0136535 -0.206298,-0.0411475 -0.082669,-0.027681 -0.137657,-0.0413345 -0.165338,-0.0413345l0 -0.24782c0.082669,-0.110163 0.178991,-0.165151 0.289154,-0.165151 0.054988,0 0.130737,0.0205737 0.227059,0.0619082 0.0963225,0.0413345 0.172071,0.0619082 0.227246,0.0619082zm-1.4454 -0.78442l-0.082482 0.165151 -0.082669 -0.0413345 0.082669 -0.165151 0.082482 0.0413345zm-0.123816 0.330302c0,0.054988 -0.0138405,0.137657 -0.0413345,0.247633 -0.027494,0.110163 -0.054988,0.178991 -0.082669,0.206485 0,-0.027494 -0.0136535,-0.082482 -0.0411475,-0.165151 -0.027494,-0.082482 -0.0413345,-0.123816 -0.0413345,-0.123816 0.137657,0 0.206485,-0.054988 0.206485,-0.165151zm-3.96418 -1.98219c0,0 -0.0688285,0.137657 -0.206485,0.412971 -0.49564,0 -0.688285,-0.0138405 -0.578122,-0.0413345l0 -0.206485c0,-0.330302 0.123816,-0.495453 0.371636,-0.495453 0.275314,0 0.412971,0.110163 0.412971,0.330302zm3.13824 4.50097l-0.082482 0.165338 -0.082669 -0.0413345 0.082669 -0.165151 0.082482 0.0411475zm-13.7094 -4.70746l-0.124003 0 0 -0.247633 0.124003 0 0 0.247633zm0 0.619456l-0.124003 0 0 -0.165151 0.124003 0 0 0.165151zm-0.206485 0.371636l-0.082669 0 0 -0.165151 0.082669 0 0 0.165151zm-0.619456 0.082669l-0.082669 0 -0.082482 -0.165151 0.082482 -0.0413345 0.082669 0.206485zm0.412971 0.495453c-0.027494,0 -0.082669,0.0138405 -0.165151,0.0413345 -0.082669,0 -0.124003,0 -0.124003,0 0,-0.027494 0.027494,-0.0895893 0.082669,-0.185912 0.054988,-0.0963225 0.0963225,-0.172071 0.123816,-0.227059l0.082669 0.371636zm-0.908424 -0.619456l-0.206485 0 0 -0.082482 0.206485 0 0 0.082482zm0.206298 0.578122c0,0.027494 -0.0136535,0.0619082 -0.0411475,0.103243 -0.027681,0.0413345 -0.0413345,0.0757487 -0.0413345,0.103243 0,-0.027494 -0.054988,-0.0963225 -0.165151,-0.206485l0.247633 0zm-1.69303 0.0413345c-0.082482,0 -0.206485,-0.027494 -0.371636,-0.082482 0.027681,-0.027681 0.0757487,-0.103243 0.144577,-0.227246 0.0688285,-0.123816 0.117083,-0.213406 0.144577,-0.268394l0.082482 0.578122zm8.17619 8.67164l-0.082482 0.0413345 -0.0413345 -0.082482 0.082482 -0.082669 0.0413345 0.123816zm-9.45625 -8.34134l-0.123816 0 -0.082669 -0.330302 0.124003 0 0.082482 0.330302zm8.87813 9.12595l-0.288967 0.289154 -0.082669 -0.082669 0.289154 -0.288967 0.082482 0.082482zm-8.50649 -4.29449l-0.123816 0 0 -0.165151 0.123816 0 0 0.165151zm20.399 -3.13843c-0.412784,1.07376 -0.619269,1.76186 -0.619269,2.06467 -1.2939,1.18392 -2.40881,2.42265 -3.34491,3.71655 -0.220139,0.24782 -0.564281,0.64695 -1.03224,1.19758 -0.24782,0.38529 -0.619456,0.908424 -1.11491,1.56903 -2.06467,2.69796 -3.52372,4.88645 -4.37715,6.56583 -0.137657,0.192645 -0.302808,0.454118 -0.49564,0.78442 0.027681,0.027681 0.0688285,0.055175 0.124003,0.082669 0.054988,0.027494 0.082482,0.0413345 0.082482,0.0413345 -0.054988,-0.055175 -0.123816,-0.027494 -0.206485,0.082482 -0.027494,0.275314 -0.027494,0.481799 0,0.619456 -0.192645,0.660791 -0.467959,1.67938 -0.825755,3.05576 -0.302808,0.991093 -0.481799,1.92701 -0.536787,2.80794 -0.220326,3.99168 -0.330489,6.04269 -0.330489,6.15286 0,2.17483 0.124003,3.68887 0.371636,4.54231 -0.027494,0 -0.082482,0 -0.165151,0 -0.082482,0.027494 -0.123816,0.0411475 -0.123816,0.0411475 -0.082669,-0.357796 -0.178991,-0.63311 -0.289154,-0.825755 -0.027494,-0.027494 -0.082482,-0.0688285 -0.165151,-0.124003 0,-0.247633 -0.082482,-0.688098 -0.247633,-1.32139 -0.027681,0.082669 -0.0688285,0.178991 -0.124003,0.289154l0 -0.371636c0.082669,0 0.137657,-0.027494 0.165151,-0.082669 -0.027494,0.082669 -0.0411475,-0.054988 -0.0411475,-0.412971 0.054988,0.082669 0.192645,0.454305 0.412784,1.1151 0.082669,0 0.124003,-0.0413345 0.124003,-0.124003 0,-0.137657 -0.027494,-0.165151 -0.082669,-0.082482 0.055175,-0.24782 0.055175,-0.481799 0,-0.702125l-0.123816 0.124003c0,-0.302808 -0.054988,-0.619456 -0.165151,-0.949758 0.082482,-0.055175 0.165151,-0.137657 0.247633,-0.24782 0.027681,0 -0.0686415,0 -0.288967,0 0.054988,-0.522947 0,-1.23873 -0.165151,-2.14734 -0.054988,0.275314 -0.082669,0.523134 -0.082669,0.743273 0,0.027681 0.0207608,0.289154 0.0620953,0.784607 0.0411475,0.49564 0.0619082,0.839782 0.0619082,1.03243l0 -0.165151c-0.027681,0 -0.082669,-0.0413345 -0.165151,-0.124003 -0.192832,0.165338 -0.289154,0.412971 -0.289154,0.743273 0,0.027681 0.0413345,0.124003 0.123816,0.289154 0.082669,0.165151 0.110163,0.275314 0.082669,0.330302 -0.027494,0.440465 0.151497,1.30774 0.536787,2.60145 -0.054988,-0.027494 -0.137657,-0.0411475 -0.24782,-0.0411475 0,-0.357983 -0.13747,-0.798448 -0.412784,-1.32139 -0.055175,0 -0.0965095,0.0344142 -0.124003,0.103243 -0.027494,0.0688285 -0.054988,0.116896 -0.082482,0.14439 0,0.055175 0.0136535,0.0965095 0.0413345,0.124003 0.027494,0 0.0411475,-0.0138405 0.0411475,-0.0413345 0,0.082669 0.178991,0.509293 0.536787,1.28006 -0.027494,0.192832 -0.0411475,0.481799 -0.0411475,0.867276 0.109976,0.275127 0.247633,0.688098 0.412784,1.23873l-0.082482 0.0413345c-0.027494,-0.082669 -0.151497,-0.385477 -0.371636,-0.908424l-0.082669 0c-0.027494,0.165151 0,0.426624 0.082669,0.784607 -0.110163,-0.412971 -0.165151,-0.770954 -0.165151,-1.07376 0,0 -0.137657,-0.288967 -0.412971,-0.867089 0,-0.055175 -0.082669,-0.151497 -0.24782,-0.289154 -0.027494,-0.054988 -0.0413345,-0.027494 -0.0413345,0.082669 0,0.054988 0.0965095,0.192645 0.289154,0.412971 0.027494,0.082482 0.027494,0.15131 0,0.206485 0.054988,0.495453 0.0963225,0.701938 0.123816,0.619269l-0.0411475 0.0413345c0,0.082669 0.082482,0.371636 0.247633,0.867276 -0.192645,-0.220326 -0.509293,-0.550628 -0.949758,-0.991093 -0.275314,0.247633 -0.344142,0.536787 -0.206485,0.867089 -0.082482,-0.110163 -0.178804,-0.275314 -0.288967,-0.495453 -0.055175,-0.027494 -0.151497,-0.0688285 -0.289154,-0.124003 -0.137657,-0.220139 -0.38529,-0.509293 -0.743273,-0.867089 -0.054988,0.054988 -0.082482,0.110163 -0.082482,0.165151l0.412971 0.660791 0 0.247633c-0.24782,-0.192645 -0.564468,-0.481612 -0.949758,-0.867089 -0.055175,-0.24782 -0.206485,-0.605616 -0.454305,-1.07357 -0.027494,-0.110163 -0.027494,-0.24782 0,-0.412971 -0.054988,-0.137657 -0.123816,-0.454305 -0.206485,-0.949758 -0.027494,-0.027494 -0.0688285,-0.0688285 -0.123816,-0.124003 -0.082669,-0.495453 -0.206485,-1.25257 -0.371636,-2.27115 0,-0.082482 -0.0138405,-0.522947 -0.0413345,-1.32139 -0.027494,-0.137657 -0.0688285,-0.302808 -0.123816,-0.495453 -0.027681,0.027494 -0.0620953,0.103243 -0.103243,0.227059 -0.0413345,0.124003 -0.0620953,0.378557 -0.0620953,0.764034 0,0.027494 0.0138405,0.158231 0.0413345,0.39221 0.027494,0.233979 0.0413345,0.419891 0.0413345,0.557548 0,0.440465 0.0413345,0.88093 0.123816,1.32139 0.055175,0.137657 0.124003,0.344142 0.206485,0.619456 0,0.165151 0.055175,0.412784 0.165151,0.743273 -0.027494,0.165151 -0.0411475,0.247633 -0.0411475,0.247633 0.027494,0.110163 0.082482,0.220326 0.165151,0.330489 0,0.13747 0.0411475,0.371636 0.123816,0.701938 0.054988,0 0.110163,0.0413345 0.165151,0.123816 -0.027494,0.165151 0.0688285,0.426811 0.289154,0.784607 -0.468146,-0.192645 -0.722699,-0.461039 -0.764034,-0.805181 -0.0413345,-0.344142 -0.144577,-0.88785 -0.309728,-1.63112 0.082669,0 0.137657,-0.0138405 0.165151,-0.0413345 -0.027494,-0.027494 -0.0688285,-0.0413345 -0.123816,-0.0413345 0.054988,-0.192645 0.027494,-0.302808 -0.082482,-0.330302 0.027494,-0.082482 -0.0138405,-0.220139 -0.124003,-0.412971 -0.027494,-0.082482 -0.054988,-0.275314 -0.082482,-0.578122 0,-0.247633 0,-0.440465 0,-0.578122 -0.055175,-0.054988 -0.137657,-0.027494 -0.24782,0.082669 -0.082669,-0.357983 -0.0688285,-0.757113 0.0413345,-1.19758 0.027494,-0.109976 -0.055175,-0.165151 -0.24782,-0.165151 0.054988,-1.12875 0.0688285,-1.72053 0.0413345,-1.77551 0.082482,-0.825942 0.123816,-1.15624 0.123816,-0.991093 -0.027494,-0.027494 -0.054988,-0.0413345 -0.082482,-0.0413345 0,-0.054988 0.027494,-0.110163 0.082482,-0.165151 0.027494,-0.110163 0,-0.165151 -0.082482,-0.165151 0,-0.027494 0.0344142,-0.082669 0.103243,-0.165151 0.0688285,-0.082669 0.116896,-0.165338 0.14439,-0.24782l-0.082482 -0.289154 -0.24782 0.206485c0.082669,-0.192645 0.123816,-0.467959 0.123816,-0.825755 0,-0.055175 -0.027494,-0.124003 -0.082482,-0.206485 0,0 0.0136535,-0.0413345 0.0413345,-0.124003 0.027494,-0.247633 0,-0.591775 -0.082669,-1.03224 0.054988,0 0.110163,0.0136535 0.165151,0.0413345 0,-0.027681 0.00692026,-0.055175 0.0207608,-0.082669 0.0136535,-0.027494 0.0344142,-0.054988 0.0619082,-0.082482 -0.027494,-0.027681 -0.082669,-0.0138405 -0.165151,0.0411475 0,-0.082482 0.027494,-0.233979 0.082482,-0.454118 0,-0.055175 -0.027494,-0.082669 -0.082482,-0.082669 0.054988,0 0.109976,-0.027494 0.165151,-0.082482 0.027494,-0.082669 -0.0413345,-0.151497 -0.206485,-0.206485 0.027494,-0.027681 0.0757487,-0.055175 0.144577,-0.082669 0.0688285,-0.027494 0.116896,-0.054988 0.14439,-0.082482 0,-0.165338 -0.0688285,-0.192832 -0.206485,-0.082669 0,-0.275314 0.055175,-0.701938 0.165151,-1.28006 0,-0.24782 0.027681,-0.605616 0.082669,-1.07376 0.660791,-2.9456 0.991093,-4.25315 0.991093,-3.92285 0,-0.137657 -0.151497,-0.63311 -0.454305,-1.48655 -0.027494,-0.027494 -0.0205737,-0.0688285 0.0207608,-0.123816 0.0411475,-0.055175 0.0619082,-0.0965095 0.0619082,-0.124003 -0.082669,-0.054988 -0.192832,-0.261473 -0.330302,-0.619269 -0.110163,-0.24782 -0.234166,-0.784607 -0.371823,-1.61055 -0.13747,-0.495453 -0.316461,-1.18374 -0.536787,-2.06467 -0.109976,-0.550628 -0.137657,-0.853436 -0.082482,-0.908424 -0.027494,-0.027494 -0.055175,-0.0413345 -0.082669,-0.0413345 -0.082482,-0.467959 -0.220139,-1.18374 -0.412971,-2.14734 -0.165151,-0.550441 -0.233979,-0.867089 -0.206485,-0.949758 -0.109976,-0.412971 -0.302808,-1.03224 -0.577935,-1.85818 0,0.110163 0.0136535,0.178991 0.0411475,0.206485 0.027494,-0.578122 -0.054988,-1.00475 -0.247633,-1.28006 -0.027681,0.054988 -0.0413345,0.0963225 -0.0413345,0.123816 0,0 -0.0413345,0 -0.124003,0 -0.082482,0 -0.13747,0 -0.165151,0 0,-0.110163 0.055175,-0.220139 0.165151,-0.330302l0.124003 0c0,0 -0.027494,-0.123816 -0.082669,-0.371636 0.027494,-0.082669 0.055175,-0.192645 0.082669,-0.330302 0,0 -0.027494,-0.357983 -0.082669,-1.07376 -0.027494,-0.247633 -0.082482,-0.495453 -0.165151,-0.743273 -0.054988,-0.027494 -0.137657,-0.0963225 -0.24782,-0.206485 0.055175,-0.054988 0.124003,-0.082482 0.206485,-0.082482 0.027681,-0.192832 -0.0136535,-0.412971 -0.123816,-0.660791 0.082669,-0.054988 0.137657,-0.082482 0.165151,-0.082482 0.027494,0.550441 0.027494,0.839595 0,0.867089 0.082669,0.082669 0.137657,0.123816 0.165151,0.123816 0,-0.165151 0.0138405,-0.426624 0.0413345,-0.78442 0,-0.385477 0,-0.688285 0,-0.908611 0.110163,0 0.165151,-0.0411475 0.165151,-0.123816 0,0.082669 0.0138405,0.220139 0.0413345,0.412971 0.054988,-0.110163 0.137657,-0.206485 0.24782,-0.289154 0.109976,0.027681 0.330302,0.027681 0.660604,0 0,0.055175 0.055175,0.124003 0.165151,0.206485 -0.137657,0 -0.227059,0.0757487 -0.268394,0.227246 -0.0413345,0.15131 -0.0894022,0.282047 -0.144577,0.39221 0,0.027494 0.0138405,0.0688285 0.0413345,0.123816 0.027494,-0.137657 0.0963225,-0.302808 0.206485,-0.495453 0.055175,-0.082669 0.165151,-0.165151 0.330302,-0.24782 -0.027494,-0.165151 -0.0688285,-0.39913 -0.123816,-0.701938 0.165151,0 0.261473,-0.0482548 0.289154,-0.144577 0.027494,-0.0963225 0.054988,-0.158231 0.082482,-0.185725 0.110163,0.192645 0.220326,0.38529 0.330302,0.578122 0.220326,0.330302 0.412971,0.495453 0.578122,0.495453 0.055175,0 0.103243,-0.0138405 0.144577,-0.0413345 0.0413345,-0.027494 0.0894022,-0.0413345 0.144577,-0.0413345 -0.055175,0 0.082482,0.082669 0.412971,0.24782 0.082482,-0.054988 0.123816,-0.15131 0.123816,-0.288967 0.054988,0 0.165151,0.082482 0.330302,0.247633 0.357983,-0.109976 0.454305,-0.38529 0.289154,-0.825755 0.109976,0.054988 0.178804,0.082482 0.206485,0.082482 0.054988,0 0.082482,-0.0136535 0.082482,-0.0411475 0,-0.027681 0.027494,-0.0413345 0.082669,-0.0413345 0.082482,0 0.165151,0.082482 0.247633,0.247633l0.165338 0c0.109976,-0.109976 0.220139,-0.192645 0.330302,-0.247633 -0.027494,0.054988 -0.0688285,0.123816 -0.124003,0.206485 0.110163,0.109976 0.234166,0.165151 0.371636,0.165151 0,0.38529 0.027681,0.674444 0.082669,0.867089 -0.054988,0.055175 -0.0688285,0.137657 -0.0413345,0.24782 0.24782,1.48655 0.509293,3.17958 0.784607,5.07909l1.19758 4.95528c0.440465,-0.605616 1.12875,-1.45905 2.06467,-2.56031 -0.054988,-0.109976 0.027494,-0.268394 0.24782,-0.474879 0.220139,-0.206298 0.330302,-0.350876 0.330302,-0.433545 0.027494,-0.082482 -0.027494,-0.192645 -0.165151,-0.330302 0.082482,-0.082669 0.206485,-0.233979 0.371636,-0.454305 0.247633,-0.38529 0.495453,-0.660604 0.743273,-0.825755 0,-0.055175 0.0136535,-0.124003 0.0413345,-0.206485 0.688098,-0.853436 1.92701,-2.49148 3.71636,-4.91394 -0.082669,0.165151 -0.0963225,0.288967 -0.0413345,0.371636 0.137657,-0.220326 0.357983,-0.564468 0.660791,-1.03243 0.027494,-0.054988 0.192645,-0.158231 0.495453,-0.309728 0.302808,-0.15131 0.49564,-0.227059 0.578122,-0.227059 0.137657,0 0.24782,0.082669 0.330302,0.24782 0.110163,-0.165151 0.2409,-0.364716 0.392397,-0.598883 0.15131,-0.233979 0.295888,-0.350876 0.433545,-0.350876 0.275314,0 0.412971,0.0963225 0.412971,0.288967 0,0.110163 -0.124003,0.289154 -0.371636,0.536787 -0.24782,0.24782 -0.371636,0.371636 -0.371636,0.371636 -0.110163,0.220326 -0.289154,0.564468 -0.536787,1.03243 0.109976,0.110163 0.178804,0.165151 0.206298,0.165151 0.055175,0 0.0965095,-0.0205737 0.124003,-0.0619082 0.027494,-0.0413345 0.0688285,-0.0619082 0.123816,-0.0619082 0.055175,0 0.110163,0.027494 0.165151,0.082482 0.192832,-0.357796 0.385477,-0.660604 0.578122,-0.908424 0,0.137657 -0.0136535,0.220326 -0.0413345,0.24782 0,-0.027494 0.055175,0.027494 0.165338,0.165151 0.054988,0 0.0411475,0.082669 -0.0413345,0.24782 0.082482,0.054988 0.178991,0.15131 0.288967,0.288967 0.027494,0 0.0413345,-0.0136535 0.0413345,-0.0413345 0,0.027681 -0.0138405,0.055175 -0.0413345,0.082669 -0.027494,0.027494 -0.261473,0.178991 -0.701938,0.454305l0 0.082482c-0.027494,-0.027494 -0.0688285,-0.0963225 -0.123816,-0.206485 -0.275314,0.24782 -0.371636,0.454305 -0.289154,0.619456 -0.027494,0.054988 -0.0413345,0.110163 -0.0413345,0.165151 0,-0.027494 -0.0136535,-0.0688285 -0.0411475,-0.123816 -0.082669,0.302808 -0.24782,0.612536 -0.49564,0.928998 -0.247633,0.316648 -0.467959,0.598883 -0.660604,0.846516 -0.055175,0.027494 -0.124003,0.0963225 -0.206485,0.206485 -0.192832,0.24782 -0.454305,0.619456 -0.784607,1.11491 0,0.082669 0,0.137657 0,0.165151 -0.054988,-0.054988 -0.110163,-0.082482 -0.165151,-0.082482 0,0.165151 -0.055175,0.295888 -0.165151,0.39221 -0.110163,0.0963225 -0.2409,0.26166 -0.392397,0.49564 -0.15131,0.233979 -0.350876,0.419704 -0.598696,0.557361 -0.054988,0.027494 -0.0688285,0.0963225 -0.0413345,0.206485 -0.137657,0.24782 -0.357796,0.523134 -0.660604,0.825942 0,0 -0.0207608,0.0344142 -0.0620953,0.103243 -0.0411475,0.0688285 -0.0619082,0.116896 -0.0619082,0.144577 0.027494,0 0.055175,-0.0138405 0.082669,-0.0413345 -0.027494,0 0.027494,0.054988 0.165151,0.165151 0.082669,-0.082669 0.302808,-0.357983 0.660604,-0.825942 0.302995,-0.38529 0.702125,-0.922264 1.19758,-1.61036 0.357983,-0.357983 0.839595,-0.88093 1.4454,-1.56921 0.109976,-0.220326 0.302808,-0.536787 0.577935,-0.949758 0,0 -0.027494,-0.0413345 -0.082482,-0.123816 0.192645,0 0.454118,0.082482 0.784607,0.247633l0.165151 -0.123816c-0.110163,0.165151 -0.137657,0.302808 -0.082669,0.412971 0.082669,-0.027494 0.206485,-0.137657 0.371636,-0.330302 -0.027494,-0.082669 -0.0411475,-0.178991 -0.0411475,-0.289154 0,-0.192645 0.082482,-0.454305 0.247633,-0.784607 0.165151,-0.330302 0.26166,-0.550628 0.289154,-0.660604 -0.330489,0.054988 -0.591962,0.288967 -0.784607,0.701938 0.054988,-0.082669 0.0688285,-0.165151 0.0413345,-0.24782 -0.110163,0.110163 -0.165151,0.192832 -0.165151,0.24782 -0.027681,0 -0.082669,-0.0138405 -0.165338,-0.0413345 -0.082482,-0.027494 -0.137657,-0.0413345 -0.165151,-0.0413345 0.082669,-0.027494 0.178991,-0.103056 0.289154,-0.227059 0.109976,-0.123816 0.192645,-0.185725 0.247633,-0.185725 -0.027494,0 0,0.0411475 0.082669,0.123816 0.385477,-0.523134 0.867089,-0.784607 1.44521,-0.784607 0.110163,0 0.268394,0.0757487 0.474879,0.227059 0.206485,0.151497 0.337222,0.227246 0.392397,0.227246 0.054988,0 0.103243,-0.0207608 0.144577,-0.0619082 0.0411475,-0.0413345 0.0755617,-0.0620953 0.103056,-0.0620953zm-12.9248 33.9848c-0.082669,0.082669 -0.151497,0.123816 -0.206485,0.123816 0,-0.027494 0,-0.082482 0,-0.165151 -0.027494,-0.110163 -0.0413345,-0.178991 -0.0413345,-0.206485 0.027494,0.055175 0.110163,0.137657 0.24782,0.24782zm-3.38606 1.36273c-0.027681,0 -0.0413345,0.0688285 -0.0413345,0.206485 -0.055175,-0.110163 -0.137657,-0.24782 -0.24782,-0.412971 0.137657,0 0.233979,0.0688285 0.289154,0.206485zm15.7329 -35.2235c-0.165338,-0.220326 -0.330489,-0.330489 -0.49564,-0.330489 -0.082482,0 -0.275314,0.055175 -0.578122,0.165338 0.027494,0.027494 0.0688285,0.054988 0.124003,0.082482 0.247633,-0.054988 0.433545,-0.0344142 0.557361,0.0619082 0.123816,0.0963225 0.172071,0.144577 0.144577,0.144577 0,0 0.082482,-0.0413345 0.24782,-0.123816zm-4.83146 -0.619456l0 -0.206485 -0.123816 0 0 0.206485 0.123816 0zm3.38606 2.80794c-0.192645,-0.110163 -0.288967,-0.206485 -0.288967,-0.288967 -0.055175,0.109976 -0.137657,0.261473 -0.24782,0.454118 -0.110163,0.082669 -0.227059,0.220326 -0.351063,0.412971 -0.123816,0.192645 -0.282047,0.481799 -0.474879,0.867276 0.49564,-0.578122 0.949758,-1.05992 1.36273,-1.4454zm-3.79903 -2.47764c0,-0.027494 -0.0205737,-0.0619082 -0.0619082,-0.103243 -0.0413345,-0.0411475 -0.0757487,-0.0755617 -0.103243,-0.103243 -0.192645,0.302808 -0.39913,0.702125 -0.619456,1.19758 0.165151,-0.275314 0.426811,-0.605616 0.784607,-0.991093zm0.49564 -0.082482c0,0 -0.0413345,0.0205737 -0.124003,0.0619082 -0.082482,0.0413345 -0.15131,0.0619082 -0.206485,0.0619082 -0.054988,0.302808 -0.275314,0.701938 -0.660604,1.19758 -0.275314,0.357796 -0.550628,0.715779 -0.825942,1.07357 0.192832,-0.192645 0.798448,-0.991093 1.81703,-2.39497zm4.29449 2.35363l-0.289154 0c-1.59652,1.73437 -2.7941,3.19342 -3.59255,4.37715l3.8817 -4.37715zm-3.92285 4.45982l-0.124003 0 -0.0411475 0.165151 0.082482 0 0.082669 -0.165151zm-0.24782 0.330302l-0.123816 -0.0413345 -0.082669 0.165151 0.123816 0.0413345 0.082669 -0.165151zm-0.412971 0.536787l-0.082482 -0.082482 -0.124003 0.247633 0.082669 0.0413345 0.123816 -0.206485zm-9.49758 -7.80455l0 -0.206485 -0.123816 0 0 0.206485 0.123816 0zm0 3.46873c-0.054988,-0.24782 -0.137657,-0.715779 -0.247633,-1.40406 -0.137657,0.137657 -0.178991,0.234166 -0.124003,0.289154 0.027494,0.165151 0.0688285,0.385477 0.124003,0.660604 0.082482,0.110163 0.165151,0.26166 0.247633,0.454305zm-3.79903 -4.25334c0,-0.027494 -0.054988,-0.109976 -0.165151,-0.247633 0,0.192645 -0.0413345,0.454118 -0.123816,0.784607 0.192645,-0.220326 0.288967,-0.399317 0.288967,-0.536974zm-0.743273 0.412971l-0.123816 0 -0.0413345 0.412971 0.082669 0 0.082482 -0.412971zm5.28558 7.26776l0 -0.165151 -0.082482 0 0 0.165151 0.082482 0zm1.81703 2.76661l-0.082669 -0.0411475 -0.082482 0.165151 0.082482 0.0411475 0.082669 -0.165151zm-1.32139 -0.660604l-0.24782 -0.991093 -0.082669 0 0.24782 0.991093 0.082669 0zm1.19739 0.867089l-0.082482 -0.0413345 -0.082669 0.165338 0.082669 0.0411475 0.082482 -0.165151zm2.27115 2.22982l-0.165151 0c-0.192645,0.165338 -0.302808,0.330489 -0.330302,0.49564 0.027494,-0.027494 0.0963225,-0.0963225 0.206485,-0.206485 0.110163,-0.110163 0.206485,-0.206485 0.288967,-0.289154zm-3.38606 -2.72527l0 -0.165151 -0.123816 0 0 0.165151 0.123816 0zm3.38606 2.02333c-0.495453,0.385477 -1.04608,0.949758 -1.6517,1.69303 0.137657,0.137657 0.220326,0.206485 0.24782,0.206485 0.302808,-0.412971 0.770767,-1.04608 1.40388,-1.89952zm-6.77212 8.05237l0 -0.165151 -0.123816 0 0 0.165151 0.123816 0zm-0.578122 2.39497l0 -0.288967c-0.110163,0.054988 -0.165151,0.123816 -0.165151,0.206298 0.054988,0.055175 0.110163,0.082669 0.165151,0.082669zm-0.165151 0.784607l-0.165151 0.082482 0 0.289154c0.110163,-0.110163 0.165151,-0.233979 0.165151,-0.371636zm-0.165151 1.23873l0 -0.784607 -0.082669 0 0 0.784607 0.082669 0zm4.00552 4.58364c-0.082669,-0.192645 -0.124003,-0.344142 -0.124003,-0.454118 -0.082482,0.165151 -0.13747,0.330302 -0.165151,0.495453 -0.027494,0.605616 0,1.25257 0.082669,1.94085 0.027494,-0.027681 0.082482,-0.055175 0.165151,-0.082669 0,-0.192645 0.0138405,-0.825942 0.0413345,-1.89952zm0 2.4363c0,0.027494 -0.0688285,-0.0963225 -0.206485,-0.371636 0,0 0,0.26166 0,0.784607 0.137657,-0.137657 0.206485,-0.275314 0.206485,-0.412971zm0.24782 1.4454c-0.110163,-0.055175 -0.192832,-0.344142 -0.24782,-0.867276 -0.027494,0 -0.082669,0.0138405 -0.165151,0.0413345 0.027494,0.110163 0.0619082,0.288967 0.103243,0.536787 0.0411475,0.24782 0.0755617,0.426811 0.103243,0.536787 0,0 0.0688285,-0.082482 0.206485,-0.247633zm-2.43649 -2.14734l0 -0.288967 -0.082482 0 0 0.288967 0.082482 0zm0 0.288967l0 -0.206298 -0.082482 0 0 0.206298 0.082482 0zm0.082669 0.371636l0 -0.165151 -0.123816 0 0 0.165151 0.123816 0zm2.18848 4.54249l-0.082482 -0.165338 -0.082669 0.0413345 0.082669 0.124003 0.082482 0zm-0.247633 0.123816l-0.0413345 -0.330302 -0.123816 0 0.082482 0.330302 0.082669 0z"/>
 </g>
</svg>
