<?xml version="1.0" encoding="UTF-8"?>
<!DOCTYPE svg PUBLIC "-//W3C//DTD SVG 1.1//EN" "http://www.w3.org/Graphics/SVG/1.1/DTD/svg11.dtd">
<!-- Creator: CorelDRAW -->
<svg xmlns="http://www.w3.org/2000/svg" xml:space="preserve" width="23.5738mm" height="23.5739mm" style="shape-rendering:geometricPrecision; text-rendering:geometricPrecision; image-rendering:optimizeQuality; fill-rule:evenodd; clip-rule:evenodd"
viewBox="0 0 1.16151 1.16152"
 xmlns:xlink="http://www.w3.org/1999/xlink">
 <defs>
  <style type="text/css">
   <![CDATA[
    .fil0 {fill:#7597FF}
    .fil2 {fill:#7898FE}
    .fil4 {fill:#7B98FD}
    .fil6 {fill:#7E98FC}
    .fil8 {fill:#8198FB}
    .fil10 {fill:#8498FA}
    .fil12 {fill:#8698F9}
    .fil14 {fill:#8998F8}
    .fil16 {fill:#8C98F7}
    .fil18 {fill:#8F98F6}
    .fil20 {fill:#9298F5}
    .fil22 {fill:#9498F4}
    .fil24 {fill:#9798F3}
    .fil26 {fill:#9A98F2}
    .fil28 {fill:#9D98F1}
    .fil30 {fill:#A098F0}
    .fil32 {fill:#A398EF}
    .fil34 {fill:#A599EF}
    .fil36 {fill:#A899EE}
    .fil38 {fill:#AB99ED}
    .fil40 {fill:#AE99EC}
    .fil42 {fill:#B199EB}
    .fil44 {fill:#B399EA}
    .fil46 {fill:#B699E9}
    .fil48 {fill:#B999E8}
    .fil49 {fill:#BC99E7}
    .fil47 {fill:#BF99E6}
    .fil45 {fill:#C299E5}
    .fil43 {fill:#C499E4}
    .fil41 {fill:#C799E3}
    .fil39 {fill:#CA99E2}
    .fil37 {fill:#CD99E1}
    .fil35 {fill:#D099E0}
    .fil33 {fill:#D29AE0}
    .fil31 {fill:#D59ADF}
    .fil29 {fill:#D89ADE}
    .fil27 {fill:#DB9ADD}
    .fil25 {fill:#DE9ADC}
    .fil23 {fill:#E19ADB}
    .fil21 {fill:#E39ADA}
    .fil19 {fill:#E69AD9}
    .fil17 {fill:#E99AD8}
    .fil15 {fill:#EC9AD7}
    .fil13 {fill:#EF9AD6}
    .fil11 {fill:#F19AD5}
    .fil9 {fill:#F49AD4}
    .fil7 {fill:#F79AD3}
    .fil5 {fill:#FA9AD2}
    .fil3 {fill:#FD9AD1}
    .fil1 {fill:#FF9AD1}
   ]]>
  </style>
    <clipPath id="id0">
     <path d="M0.580757 0c0.0214725,0 0.0426641,0.00120222 0.0635256,0.00347363l0.000354754 0.647047 -0.0775828 0.107821 4.92714e-006 4.92714e-006c-0.00848454,-0.00258182 -0.0174914,-0.00396635 -0.0268135,-0.00396635 -0.0508777,0 -0.0921375,0.0412599 -0.0921375,0.0921326 0,0.0508777 0.0412599,0.0921326 0.0921375,0.0921326 0.0508727,0 0.0921326,-0.041255 0.0921326,-0.0921326 0,-0.0210635 -0.00707538,-0.0404715 -0.0189744,-0.055992l0.00178855 -0.00270007 0.0873829 -0.118483 0.00020694 -0.656448c0.0472562,0.0101105 0.092379,0.025971 0.13461,0.0468128l0 0.446039 0.135969 0.080948c-0.00135004,0.0062624 -0.00205955,0.0127712 -0.00205955,0.0194425 0,0.0508727 0.041255,0.0921326 0.0921326,0.0921326 0.0508727,0 0.0921326,-0.0412599 0.0921326,-0.0921326 0,-0.0508777 -0.0412599,-0.0921326 -0.0921326,-0.0921326 -0.0244485,0 -0.0466699,0.00952909 -0.063161,0.0250693l-0.104086 -0.069044 0 -0.376916c0.159664,0.10349 0.265327,0.283256 0.265327,0.487649 0,0.257187 -0.167281,0.475356 -0.398941,0.551682l0.00204476 -0.00308439 4.43443e-005 -0.171292 0.0880776 -0.122154c0.0106673,0.00432603 0.0223347,0.00671077 0.0345491,0.00671077 0.0508777,0 0.0921326,-0.0412599 0.0921326,-0.0921326 0,-0.0508777 -0.041255,-0.0921326 -0.0921326,-0.0921326 -0.0508727,0 -0.0921326,0.041255 -0.0921326,0.0921326 0,0.0170528 0.00464137,0.0330168 0.012717,0.0467142l-0.102115 0.142148 -0.000162596 0.208664c-0.0402203,0.00881466 -0.0819827,0.0135053 -0.124839,0.0135053 -0.0647574,0 -0.127036,-0.0106131 -0.185206,-0.0301837l0.00189202 -0.00185261 0 -0.413668 -0.14778 -0.139315c0.00300556,-0.00793762 0.00252762,-0.00647426 0.00415358,-0.0140818 0.00134018,-0.00627225 0.0020694,-0.0128007 0.0020694,-0.0194868 0,-0.0508777 -0.0412599,-0.0921326 -0.0921326,-0.0921326 -0.0508777,0 -0.0921326,0.041255 -0.0921326,0.0921326 0,0.0508727 0.041255,0.0921326 0.0921326,0.0921326 0.016363,0 0.0317259,-0.00427183 0.0450439,-0.0117562l0 4.92714e-006 0.129623 0.116192 0 0.366619 0.00158161 0.00325684c-0.200569,-0.0915167 -0.340002,-0.29381 -0.340002,-0.528623 0,-0.215976 0.117971,-0.404454 0.292968,-0.50451l-0.000147814 0.000650383 -4.92714e-005 0.32965 0.116616 0.106727c-0.00959807,0.01454 -0.0151904,0.0319525 -0.0151904,0.0506757 0,0.0508727 0.0412599,0.0921326 0.0921326,0.0921326 0.0508777,0 0.0921326,-0.0412599 0.0921326,-0.0921326 0,-0.0508777 -0.041255,-0.0921326 -0.0921326,-0.0921326 -0.0107362,0 -0.0210438,0.00184275 -0.0306271,0.00521784l-0.104106 -0.0981388 -0.000266066 -0.331764c0.0703793,-0.0303118 0.147937,-0.047133 0.229427,-0.047133zm-0.0944336 0.525317c0.0213345,0 0.0386337,0.0172992 0.0386337,0.0386288 0,0.0213296 -0.0172992,0.0386337 -0.0386337,0.0386337 -0.0213247,0 -0.0386288,-0.0173041 -0.0386288,-0.0386337 0,-0.0213296 0.0173041,-0.0386288 0.0386288,-0.0386288zm0.0539177 0.282562c0.0213296,0 0.0386337,0.0173041 0.0386337,0.0386288 0,0.0213345 -0.0173041,0.0386337 -0.0386337,0.0386337 -0.0213296,0 -0.0386288,-0.0172992 -0.0386288,-0.0386337 0,-0.0213247 0.0172992,-0.0386288 0.0386288,-0.0386288zm0.523189 -0.24038c0.0213296,0 0.0386337,0.0172992 0.0386337,0.0386288 0,0.0213296 -0.0173041,0.0386337 -0.0386337,0.0386337 -0.0213296,0 -0.0386288,-0.0173041 -0.0386288,-0.0386337 0,-0.0213296 0.0172992,-0.0386288 0.0386288,-0.0386288zm-0.176145 0.144355c0.0213345,0 0.0386337,0.0172992 0.0386337,0.0386288 0,0.0213296 -0.0172992,0.0386337 -0.0386337,0.0386337 -0.0213247,0 -0.0386288,-0.0173041 -0.0386288,-0.0386337 0,-0.0213296 0.0173041,-0.0386288 0.0386288,-0.0386288zm-0.723536 -0.207556c0.0213296,0 0.0386337,0.0172992 0.0386337,0.0386288 0,0.0213296 -0.0173041,0.0386337 -0.0386337,0.0386337 -0.0213296,0 -0.0386288,-0.0173041 -0.0386288,-0.0386337 0,-0.0213296 0.0172992,-0.0386288 0.0386288,-0.0386288z"/>
    </clipPath>
 </defs>
 <g id="图层_x0020_1">
  <metadata id="CorelCorpID_0Corel-Layer"/>
  <g>
   <g style="clip-path:url(#id0)">
    <polygon class="fil0" points="0.580757,0.580762 0.607103,-0.240794 0.554412,-0.240799 "/>
    <polygon id="1" class="fil1" points="0.580757,0.580762 0.554412,1.40232 0.607103,1.40232 "/>
    <polygon id="12" class="fil2" points="0.580757,0.580762 0.554412,-0.240799 0.501829,-0.237419 "/>
    <polygon id="123" class="fil3" points="0.580757,0.580762 0.607103,1.40232 0.659685,1.39894 "/>
    <polygon id="1234" class="fil4" points="0.580757,0.580762 0.501829,-0.237419 0.449572,-0.230684 "/>
    <polygon id="12345" class="fil5" points="0.580757,0.580762 0.659685,1.39894 0.711942,1.39221 "/>
    <polygon id="123456" class="fil6" points="0.580757,0.580762 0.449572,-0.230684 0.397852,-0.220608 "/>
    <polygon id="1234567" class="fil7" points="0.580757,0.580762 0.711942,1.39221 0.763663,1.38213 "/>
    <polygon id="12345678" class="fil8" points="0.580757,0.580762 0.397852,-0.220608 0.346881,-0.207245 "/>
    <polygon id="123456789" class="fil9" points="0.580757,0.580762 0.763663,1.38213 0.814634,1.36877 "/>
    <polygon id="12345678910" class="fil10" points="0.580757,0.580762 0.346881,-0.207245 0.296875,-0.190641 "/>
    <polygon id="1234567891011" class="fil11" points="0.580757,0.580762 0.814634,1.36877 0.864639,1.35217 "/>
    <polygon id="123456789101112" class="fil12" points="0.580757,0.580762 0.296875,-0.190641 0.248032,-0.170868 "/>
    <polygon id="12345678910111213" class="fil13" points="0.580757,0.580762 0.864639,1.35217 0.913482,1.33239 "/>
    <polygon id="1234567891011121314" class="fil14" points="0.580757,0.580762 0.248032,-0.170868 0.200559,-0.148006 "/>
    <polygon id="123456789101112131415" class="fil15" points="0.580757,0.580762 0.913482,1.33239 0.960955,1.30953 "/>
    <polygon id="12345678910111213141516" class="fil16" points="0.580757,0.580762 0.200559,-0.148006 0.154648,-0.122149 "/>
    <polygon id="1234567891011121314151617" class="fil17" points="0.580757,0.580762 0.960955,1.30953 1.00687,1.28367 "/>
    <polygon id="123456789101112131415161718" class="fil18" points="0.580757,0.580762 0.154648,-0.122149 0.110491,-0.0934038 "/>
    <polygon id="12345678910111213141516171819" class="fil19" points="0.580757,0.580762 1.00687,1.28367 1.05102,1.25493 "/>
    <polygon id="1234567891011121314151617181920" class="fil20" points="0.580757,0.580762 0.110491,-0.0934038 0.0682606,-0.0618898 "/>
    <polygon id="123456789101112131415161718192021" class="fil21" points="0.580757,0.580762 1.05102,1.25493 1.09325,1.22341 "/>
    <polygon id="12345678910111213141516171819202122" class="fil22" points="0.580757,0.580762 0.0682606,-0.0618898 0.0281389,-0.02773 "/>
    <polygon id="1234567891011121314151617181920212223" class="fil23" points="0.580757,0.580762 1.09325,1.22341 1.13338,1.18925 "/>
    <polygon id="123456789101112131415161718192021222324" class="fil24" points="0.580757,0.580762 0.0281389,-0.02773 -0.0097114,0.00892305 "/>
    <polygon id="12345678910111213141516171819202122232425" class="fil25" points="0.580757,0.580762 1.13338,1.18925 1.17123,1.1526 "/>
    <polygon id="1234567891011121314151617181920212223242526" class="fil26" points="0.580757,0.580762 -0.0097114,0.00892305 -0.0451375,0.0479312 "/>
    <polygon id="123456789101112131415161718192021222324252627" class="fil27" points="0.580757,0.580762 1.17123,1.1526 1.20665,1.11359 "/>
    <polygon id="12345678910111213141516171819202122232425262728" class="fil28" points="0.580757,0.580762 -0.0451375,0.0479312 -0.0779868,0.0891271 "/>
    <polygon id="1234567891011121314151617181920212223242526272829" class="fil29" points="0.580757,0.580762 1.20665,1.11359 1.2395,1.0724 "/>
    <polygon id="123456789101112131415161718192021222324252627282930" class="fil30" points="0.580757,0.580762 -0.0779868,0.0891271 -0.108136,0.132343 "/>
    <polygon id="12345678910111213141516171819202122232425262728293031" class="fil31" points="0.580757,0.580762 1.2395,1.0724 1.26965,1.02918 "/>
    <polygon id="1234567891011121314151617181920212223242526272829303132" class="fil32" points="0.580757,0.580762 -0.108136,0.132343 -0.135452,0.177402 "/>
    <polygon id="123456789101112131415161718192021222324252627282930313233" class="fil33" points="0.580757,0.580762 1.26965,1.02918 1.29697,0.984123 "/>
    <polygon id="12345678910111213141516171819202122232425262728293031323334" class="fil34" points="0.580757,0.580762 -0.135452,0.177402 -0.159822,0.224121 "/>
    <polygon id="1234567891011121314151617181920212223242526272829303132333435" class="fil35" points="0.580757,0.580762 1.29697,0.984123 1.32134,0.937403 "/>
    <polygon id="123456789101112131415161718192021222324252627282930313233343536" class="fil36" points="0.580757,0.580762 -0.159822,0.224121 -0.181151,0.272303 "/>
    <polygon id="12345678910111213141516171819202122232425262728293031323334353637" class="fil37" points="0.580757,0.580762 1.32134,0.937403 1.34267,0.889221 "/>
    <polygon id="1234567891011121314151617181920212223242526272829303132333435363738" class="fil38" points="0.580757,0.580762 -0.181151,0.272303 -0.199347,0.321752 "/>
    <polygon id="123456789101112131415161718192021222324252627282930313233343536373839" class="fil39" points="0.580757,0.580762 1.34267,0.889221 1.36086,0.839772 "/>
    <polygon id="12345678910111213141516171819202122232425262728293031323334353637383940" class="fil40" points="0.580757,0.580762 -0.199347,0.321752 -0.214341,0.372265 "/>
    <polygon id="1234567891011121314151617181920212223242526272829303132333435363738394041" class="fil41" points="0.580757,0.580762 1.36086,0.839772 1.37585,0.789259 "/>
    <polygon id="123456789101112131415161718192021222324252627282930313233343536373839404142" class="fil42" points="0.580757,0.580762 -0.214341,0.372265 -0.226067,0.423636 "/>
    <polygon id="12345678910111213141516171819202122232425262728293031323334353637383940414243" class="fil43" points="0.580757,0.580762 1.37585,0.789259 1.38758,0.737889 "/>
    <polygon id="1234567891011121314151617181920212223242526272829303132333435363738394041424344" class="fil44" points="0.580757,0.580762 -0.226067,0.423636 -0.234478,0.475651 "/>
    <polygon id="123456789101112131415161718192021222324252627282930313233343536373839404142434445" class="fil45" points="0.580757,0.580762 1.38758,0.737889 1.39599,0.685873 "/>
    <polygon id="12345678910111213141516171819202122232425262728293031323334353637383940414243444546" class="fil46" points="0.580757,0.580762 -0.234478,0.475651 -0.239533,0.528101 "/>
    <polygon id="1234567891011121314151617181920212223242526272829303132333435363738394041424344454647" class="fil47" points="0.580757,0.580762 1.39599,0.685873 1.40105,0.633423 "/>
    <polygon id="123456789101112131415161718192021222324252627282930313233343536373839404142434445464748" class="fil48" points="0.580757,0.580762 -0.239533,0.528101 -0.241223,0.580762 "/>
    <polygon id="12345678910111213141516171819202122232425262728293031323334353637383940414243444546474849" class="fil49" points="0.580757,0.580762 1.40105,0.633423 1.40274,0.580762 "/>
    <polygon id="1234567891011121314151617181920212223242526272829303132333435363738394041424344454647484950" class="fil49" points="0.580757,0.580762 -0.241223,0.580762 -0.239533,0.633423 "/>
    <polygon id="123456789101112131415161718192021222324252627282930313233343536373839404142434445464748495051" class="fil48" points="0.580757,0.580762 1.40274,0.580762 1.40105,0.528101 "/>
    <polygon id="12345678910111213141516171819202122232425262728293031323334353637383940414243444546474849505152" class="fil47" points="0.580757,0.580762 -0.239533,0.633423 -0.234478,0.685873 "/>
    <polygon id="1234567891011121314151617181920212223242526272829303132333435363738394041424344454647484950515253" class="fil46" points="0.580757,0.580762 1.40105,0.528101 1.39599,0.475651 "/>
    <polygon id="123456789101112131415161718192021222324252627282930313233343536373839404142434445464748495051525354" class="fil45" points="0.580757,0.580762 -0.234478,0.685873 -0.226067,0.737889 "/>
    <polygon id="12345678910111213141516171819202122232425262728293031323334353637383940414243444546474849505152535455" class="fil44" points="0.580757,0.580762 1.39599,0.475651 1.38758,0.423636 "/>
    <polygon id="1234567891011121314151617181920212223242526272829303132333435363738394041424344454647484950515253545556" class="fil43" points="0.580757,0.580762 -0.226067,0.737889 -0.214341,0.789259 "/>
    <polygon id="123456789101112131415161718192021222324252627282930313233343536373839404142434445464748495051525354555657" class="fil42" points="0.580757,0.580762 1.38758,0.423636 1.37585,0.372265 "/>
    <polygon id="12345678910111213141516171819202122232425262728293031323334353637383940414243444546474849505152535455565758" class="fil41" points="0.580757,0.580762 -0.214341,0.789259 -0.199347,0.839772 "/>
    <polygon id="1234567891011121314151617181920212223242526272829303132333435363738394041424344454647484950515253545556575859" class="fil40" points="0.580757,0.580762 1.37585,0.372265 1.36086,0.321752 "/>
    <polygon id="123456789101112131415161718192021222324252627282930313233343536373839404142434445464748495051525354555657585960" class="fil39" points="0.580757,0.580762 -0.199347,0.839772 -0.181151,0.889221 "/>
    <polygon id="12345678910111213141516171819202122232425262728293031323334353637383940414243444546474849505152535455565758596061" class="fil38" points="0.580757,0.580762 1.36086,0.321752 1.34267,0.272303 "/>
    <polygon id="1234567891011121314151617181920212223242526272829303132333435363738394041424344454647484950515253545556575859606162" class="fil37" points="0.580757,0.580762 -0.181151,0.889221 -0.159822,0.937403 "/>
    <polygon id="123456789101112131415161718192021222324252627282930313233343536373839404142434445464748495051525354555657585960616263" class="fil36" points="0.580757,0.580762 1.34267,0.272303 1.32134,0.224121 "/>
    <polygon id="12345678910111213141516171819202122232425262728293031323334353637383940414243444546474849505152535455565758596061626364" class="fil35" points="0.580757,0.580762 -0.159822,0.937403 -0.135452,0.984123 "/>
    <polygon id="1234567891011121314151617181920212223242526272829303132333435363738394041424344454647484950515253545556575859606162636465" class="fil34" points="0.580757,0.580762 1.32134,0.224121 1.29697,0.177402 "/>
    <polygon id="123456789101112131415161718192021222324252627282930313233343536373839404142434445464748495051525354555657585960616263646566" class="fil33" points="0.580757,0.580762 -0.135452,0.984123 -0.108136,1.02918 "/>
    <polygon id="12345678910111213141516171819202122232425262728293031323334353637383940414243444546474849505152535455565758596061626364656667" class="fil32" points="0.580757,0.580762 1.29697,0.177402 1.26965,0.132343 "/>
    <polygon id="1234567891011121314151617181920212223242526272829303132333435363738394041424344454647484950515253545556575859606162636465666768" class="fil31" points="0.580757,0.580762 -0.108136,1.02918 -0.0779917,1.0724 "/>
    <polygon id="123456789101112131415161718192021222324252627282930313233343536373839404142434445464748495051525354555657585960616263646566676869" class="fil30" points="0.580757,0.580762 1.26965,0.132343 1.23951,0.0891271 "/>
    <polygon id="12345678910111213141516171819202122232425262728293031323334353637383940414243444546474849505152535455565758596061626364656667686970" class="fil29" points="0.580757,0.580762 -0.0779917,1.0724 -0.0451375,1.11359 "/>
    <polygon id="1234567891011121314151617181920212223242526272829303132333435363738394041424344454647484950515253545556575859606162636465666768697071" class="fil28" points="0.580757,0.580762 1.23951,0.0891271 1.20665,0.0479312 "/>
    <polygon id="123456789101112131415161718192021222324252627282930313233343536373839404142434445464748495051525354555657585960616263646566676869707172" class="fil27" points="0.580757,0.580762 -0.0451375,1.11359 -0.0097114,1.1526 "/>
    <polygon id="12345678910111213141516171819202122232425262728293031323334353637383940414243444546474849505152535455565758596061626364656667686970717273" class="fil26" points="0.580757,0.580762 1.20665,0.0479312 1.17123,0.00892305 "/>
    <polygon id="1234567891011121314151617181920212223242526272829303132333435363738394041424344454647484950515253545556575859606162636465666768697071727374" class="fil25" points="0.580757,0.580762 -0.0097114,1.1526 0.0281389,1.18925 "/>
    <polygon id="123456789101112131415161718192021222324252627282930313233343536373839404142434445464748495051525354555657585960616263646566676869707172737475" class="fil24" points="0.580757,0.580762 1.17123,0.00892305 1.13338,-0.02773 "/>
    <polygon id="12345678910111213141516171819202122232425262728293031323334353637383940414243444546474849505152535455565758596061626364656667686970717273747576" class="fil23" points="0.580757,0.580762 0.0281389,1.18925 0.0682606,1.22341 "/>
    <polygon id="1234567891011121314151617181920212223242526272829303132333435363738394041424344454647484950515253545556575859606162636465666768697071727374757677" class="fil22" points="0.580757,0.580762 1.13338,-0.02773 1.09325,-0.0618898 "/>
    <polygon id="123456789101112131415161718192021222324252627282930313233343536373839404142434445464748495051525354555657585960616263646566676869707172737475767778" class="fil21" points="0.580757,0.580762 0.0682606,1.22341 0.110491,1.25493 "/>
    <polygon id="12345678910111213141516171819202122232425262728293031323334353637383940414243444546474849505152535455565758596061626364656667686970717273747576777879" class="fil20" points="0.580757,0.580762 1.09325,-0.0618898 1.05102,-0.0934038 "/>
    <polygon id="1234567891011121314151617181920212223242526272829303132333435363738394041424344454647484950515253545556575859606162636465666768697071727374757677787980" class="fil19" points="0.580757,0.580762 0.110491,1.25493 0.154648,1.28367 "/>
    <polygon id="123456789101112131415161718192021222324252627282930313233343536373839404142434445464748495051525354555657585960616263646566676869707172737475767778798081" class="fil18" points="0.580757,0.580762 1.05102,-0.0934038 1.00687,-0.122149 "/>
    <polygon id="12345678910111213141516171819202122232425262728293031323334353637383940414243444546474849505152535455565758596061626364656667686970717273747576777879808182" class="fil17" points="0.580757,0.580762 0.154648,1.28367 0.200559,1.30953 "/>
    <polygon id="1234567891011121314151617181920212223242526272829303132333435363738394041424344454647484950515253545556575859606162636465666768697071727374757677787980818283" class="fil16" points="0.580757,0.580762 1.00687,-0.122149 0.960955,-0.148006 "/>
    <polygon id="123456789101112131415161718192021222324252627282930313233343536373839404142434445464748495051525354555657585960616263646566676869707172737475767778798081828384" class="fil15" points="0.580757,0.580762 0.200559,1.30953 0.248032,1.33239 "/>
    <polygon id="12345678910111213141516171819202122232425262728293031323334353637383940414243444546474849505152535455565758596061626364656667686970717273747576777879808182838485" class="fil14" points="0.580757,0.580762 0.960955,-0.148006 0.913482,-0.170868 "/>
    <polygon id="1234567891011121314151617181920212223242526272829303132333435363738394041424344454647484950515253545556575859606162636465666768697071727374757677787980818283848586" class="fil13" points="0.580757,0.580762 0.248032,1.33239 0.296875,1.35217 "/>
    <polygon id="123456789101112131415161718192021222324252627282930313233343536373839404142434445464748495051525354555657585960616263646566676869707172737475767778798081828384858687" class="fil12" points="0.580757,0.580762 0.913482,-0.170868 0.864639,-0.190641 "/>
    <polygon id="12345678910111213141516171819202122232425262728293031323334353637383940414243444546474849505152535455565758596061626364656667686970717273747576777879808182838485868788" class="fil11" points="0.580757,0.580762 0.296875,1.35217 0.346881,1.36877 "/>
    <polygon id="1234567891011121314151617181920212223242526272829303132333435363738394041424344454647484950515253545556575859606162636465666768697071727374757677787980818283848586878889" class="fil10" points="0.580757,0.580762 0.864639,-0.190641 0.814634,-0.207245 "/>
    <polygon id="123456789101112131415161718192021222324252627282930313233343536373839404142434445464748495051525354555657585960616263646566676869707172737475767778798081828384858687888990" class="fil9" points="0.580757,0.580762 0.346881,1.36877 0.397852,1.38213 "/>
    <polygon id="12345678910111213141516171819202122232425262728293031323334353637383940414243444546474849505152535455565758596061626364656667686970717273747576777879808182838485868788899091" class="fil8" points="0.580757,0.580762 0.814634,-0.207245 0.763663,-0.220608 "/>
    <polygon id="1234567891011121314151617181920212223242526272829303132333435363738394041424344454647484950515253545556575859606162636465666768697071727374757677787980818283848586878889909192" class="fil7" points="0.580757,0.580762 0.397852,1.38213 0.449572,1.39221 "/>
    <polygon id="123456789101112131415161718192021222324252627282930313233343536373839404142434445464748495051525354555657585960616263646566676869707172737475767778798081828384858687888990919293" class="fil6" points="0.580757,0.580762 0.763663,-0.220608 0.711942,-0.230684 "/>
    <polygon id="12345678910111213141516171819202122232425262728293031323334353637383940414243444546474849505152535455565758596061626364656667686970717273747576777879808182838485868788899091929394" class="fil5" points="0.580757,0.580762 0.449572,1.39221 0.501829,1.39894 "/>
    <polygon id="1234567891011121314151617181920212223242526272829303132333435363738394041424344454647484950515253545556575859606162636465666768697071727374757677787980818283848586878889909192939495" class="fil4" points="0.580757,0.580762 0.711942,-0.230684 0.659685,-0.237419 "/>
    <polygon id="123456789101112131415161718192021222324252627282930313233343536373839404142434445464748495051525354555657585960616263646566676869707172737475767778798081828384858687888990919293949596" class="fil3" points="0.580757,0.580762 0.501829,1.39894 0.554412,1.40232 "/>
    <polygon id="12345678910111213141516171819202122232425262728293031323334353637383940414243444546474849505152535455565758596061626364656667686970717273747576777879808182838485868788899091929394959697" class="fil2" points="0.580757,0.580762 0.659685,-0.237419 0.607103,-0.240794 "/>
   </g>
  </g>
 </g>
</svg>
